<svg width="86" height="86" viewBox="0 0 86 86" fill="none" xmlns="http://www.w3.org/2000/svg">
<path d="M17.9167 14.3334L10.75 21.5" stroke="#45171E" stroke-width="7.16667" stroke-linecap="round"/>
<path d="M68.0833 14.3334L75.25 21.5" stroke="#45171E" stroke-width="7.16667" stroke-linecap="round"/>
<path fill-rule="evenodd" clip-rule="evenodd" d="M42.9997 71.6667C58.8318 71.6667 71.6663 58.8322 71.6663 43C71.6663 27.1679 58.8318 14.3334 42.9997 14.3334C27.1675 14.3334 14.333 27.1679 14.333 43C14.333 58.8322 27.1675 71.6667 42.9997 71.6667ZM52.9643 36.2803C54.2006 34.7349 53.95 32.48 52.4047 31.2437C50.8593 30.0074 48.6043 30.2579 47.3681 31.8033L42.2537 38.1963L34.2372 32.8519C32.5905 31.7542 30.3658 32.1991 29.268 33.8458C28.1702 35.4924 28.6152 37.7172 30.2618 38.815L40.3285 45.5261C42.2616 46.8148 44.8593 46.4115 46.3107 44.5973L52.9643 36.2803Z" fill="#45171E"/>
</svg>
