<svg width="78" height="78" viewBox="0 0 78 78" fill="none" xmlns="http://www.w3.org/2000/svg">
<path d="M50.375 16.2501C54.9395 16.2501 57.2218 16.2501 58.8612 17.3456C59.5709 17.8198 60.1803 18.4292 60.6546 19.1389C61.75 20.7784 61.75 23.0606 61.75 27.6251V58.5001C61.75 64.6284 61.75 67.6925 59.8462 69.5963C57.9424 71.5001 54.8783 71.5001 48.75 71.5001H29.25C23.1217 71.5001 20.0576 71.5001 18.1538 69.5963C16.25 67.6925 16.25 64.6284 16.25 58.5001V27.6251C16.25 23.0606 16.25 20.7784 17.3454 19.1389C17.8197 18.4292 18.4291 17.8198 19.1388 17.3456C20.7782 16.2501 23.0605 16.2501 27.625 16.2501" stroke="#45171E" stroke-width="6.5"/>
<path d="M29.25 16.25C29.25 12.6601 32.1601 9.75 35.75 9.75H42.25C45.8399 9.75 48.75 12.6601 48.75 16.25C48.75 19.8399 45.8399 22.75 42.25 22.75H35.75C32.1601 22.75 29.25 19.8399 29.25 16.25Z" stroke="#45171E" stroke-width="6.5"/>
<path d="M29.25 39L48.75 39" stroke="#45171E" stroke-width="6.5" stroke-linecap="round"/>
<path d="M29.25 51.9999L42.25 51.9999" stroke="#45171E" stroke-width="6.5" stroke-linecap="round"/>
</svg>
