<svg width="55" height="55" viewBox="0 0 55 55" fill="none" xmlns="http://www.w3.org/2000/svg">
<path d="M34.375 11.4585V26.8063C34.375 27.2587 34.5089 27.701 34.7599 28.0775L45.7498 44.5623C46.7651 46.0852 45.6733 48.1252 43.843 48.1252H11.157C9.32667 48.1252 8.23494 46.0852 9.25024 44.5623L20.2401 28.0775C20.4911 27.701 20.625 27.2587 20.625 26.8063V11.4585" stroke="#E5E5E5" stroke-width="4.58333" stroke-linejoin="round"/>
<path d="M38.7288 41.7083L33.9163 35.2917C33.4836 34.7146 32.8043 34.375 32.083 34.375H22.9163C22.195 34.375 21.5158 34.7146 21.083 35.2917L16.2705 41.7083C15.704 42.4637 16.243 43.5417 17.1872 43.5417H37.8122C38.7564 43.5417 39.2954 42.4637 38.7288 41.7083Z" fill="#E5E5E5"/>
<path d="M16.042 11.4585H38.9587" stroke="#E5E5E5" stroke-width="4.58333" stroke-linecap="round" stroke-linejoin="round"/>
</svg>
