<svg width="80" height="80" viewBox="0 0 80 80" fill="none" xmlns="http://www.w3.org/2000/svg">
<path d="M40 73.3334V63.3334" stroke="#45171E" stroke-width="6.66667" stroke-linecap="round" stroke-linejoin="round"/>
<path fill-rule="evenodd" clip-rule="evenodd" d="M20.2765 26.6667H30C31.8409 26.6667 33.3333 28.159 33.3333 30C33.3333 31.841 31.8409 33.3333 30 33.3333H20V40H30C31.8409 40 33.3333 41.4924 33.3333 43.3333C33.3333 45.1743 31.8409 46.6667 30 46.6667H20.2765C21.8635 56.1257 30.09 63.3333 40 63.3333C49.91 63.3333 58.1366 56.1257 59.7235 46.6667H53.3333C51.4924 46.6667 50 45.1743 50 43.3333C50 41.4924 51.4924 40 53.3333 40H60V33.3333H53.3333C51.4924 33.3333 50 31.841 50 30C50 28.159 51.4924 26.6667 53.3333 26.6667H59.7235C58.1365 17.2076 49.91 10 40 10C30.09 10 21.8634 17.2076 20.2765 26.6667Z" fill="#45171E"/>
</svg>
