<svg width="58" height="58" viewBox="0 0 58 58" fill="none" xmlns="http://www.w3.org/2000/svg">
<path d="M8.09299 20.167L28.1877 11.236C28.7049 11.0062 29.2951 11.0062 29.8123 11.236L49.907 20.167C50.2317 20.3113 50.2317 20.772 49.907 20.9163L29.8123 29.8473C29.2951 30.0772 28.7049 30.0772 28.1877 29.8473L8.09299 20.9163C7.76835 20.772 7.76835 20.3113 8.09299 20.167Z" fill="white"/>
<path d="M49.5415 20.5416V30.2083" stroke="white" stroke-linecap="round" stroke-linejoin="round"/>
<path d="M15.7085 25.375V37.4583C15.7085 37.4583 16.9168 42.2917 29.0002 42.2917C41.0835 42.2917 42.2918 37.4583 42.2918 37.4583V25.375" stroke="white" stroke-linecap="round" stroke-linejoin="round"/>
<path d="M15.7085 25.375V37.4583C15.7085 37.4583 16.9168 42.2917 29.0002 42.2917C41.0835 42.2917 42.2918 37.4583 42.2918 37.4583V25.375" stroke="white" stroke-opacity="0.6" stroke-linecap="round" stroke-linejoin="round"/>
</svg>
