<svg width="67" height="67" viewBox="0 0 67 67" fill="none" xmlns="http://www.w3.org/2000/svg">
<path fill-rule="evenodd" clip-rule="evenodd" d="M53.042 44.5283V39.0832H45.3718C44.7173 39.0832 44.39 39.0832 44.1144 39.1106C41.4678 39.3738 39.3743 41.4673 39.1111 44.1139C39.0837 44.3895 39.0837 44.7168 39.0837 45.3713C39.0837 46.1523 39.0837 46.5428 39.1184 46.8527C39.4555 49.8614 42.1291 52.0532 45.1455 51.7937C45.4562 51.767 45.8391 51.6904 46.6049 51.5372L47.4317 51.3719C48.4937 51.1595 49.0248 51.0533 49.4728 50.88C51.3014 50.1727 52.625 48.5582 52.9599 46.6264C53.042 46.153 53.042 45.6115 53.042 44.5283ZM25.1253 50.1116V44.6665H17.4551C16.8006 44.6665 16.4733 44.6665 16.1977 44.6939C13.5512 44.9572 11.4576 47.0507 11.1944 49.6972C11.167 49.9729 11.167 50.3001 11.167 50.9546C11.167 51.7356 11.167 52.1261 11.2017 52.436C11.5389 55.4447 14.2124 57.6365 17.2288 57.3771C17.5395 57.3503 17.9227 57.2737 18.6883 57.1206L19.5149 56.9553C20.577 56.7428 21.1081 56.6366 21.5562 56.4633C23.3847 55.756 24.7083 54.1415 25.0433 52.2097C25.1253 51.7364 25.1253 51.1948 25.1253 50.1116Z" fill="#45171E"/>
<path d="M25.1253 44.6665V30.7082M25.1253 44.6665V50.1116M25.1253 44.6665H17.4551M53.042 39.0832V25.1248M53.042 39.0832V44.5283M53.042 39.0832H45.3718M53.042 25.1248L25.1253 30.7082M53.042 25.1248V24.7876M25.1253 30.7082V25.9043M25.1253 25.9043C25.1253 21.5221 25.1253 19.331 26.3908 17.7873C27.6563 16.2436 29.8049 15.8139 34.102 14.9545M25.1253 25.9043V24.9479C25.1253 21.0235 25.1253 19.0613 26.2586 17.6789C27.3919 16.2965 29.316 15.9117 33.1642 15.1421L34.102 14.9545M25.1253 25.9043V50.1116M34.102 14.9545L39.6854 13.8378M39.6854 13.8378C45.865 12.6019 48.9549 11.9839 50.9984 13.6592C53.042 15.3346 53.042 18.4856 53.042 24.7876M39.6854 13.8378L41.0808 13.5587C46.6149 12.4519 49.3819 11.8985 51.2119 13.3988C53.042 14.8991 53.042 17.7209 53.042 23.3645V24.7876M53.042 44.5283C53.042 45.6115 53.042 46.153 52.9599 46.6264C52.625 48.5582 51.3014 50.1727 49.4728 50.88C49.0248 51.0533 48.4937 51.1595 47.4317 51.3719M53.042 44.5283V44.5283C53.042 46.0658 53.042 46.8345 52.8584 47.4931C52.4817 48.8448 51.5544 49.976 50.3028 50.6105C49.693 50.9196 48.9392 51.0704 47.4317 51.3719V51.3719M47.4317 51.3719L46.605 51.5372M46.605 51.5372C45.8391 51.6904 45.4562 51.767 45.1455 51.7937C42.1291 52.0532 39.4555 49.8614 39.1184 46.8527C39.0837 46.5428 39.0837 46.1523 39.0837 45.3713M46.605 51.5372V51.5372C45.204 51.8174 44.5035 51.9575 43.9319 51.9402C41.663 51.8713 39.7253 50.2827 39.2128 48.0715C39.0837 47.5144 39.0837 46.8 39.0837 45.3713V45.3713M39.0837 45.3713C39.0837 44.7168 39.0837 44.3895 39.1111 44.1139C39.3743 41.4673 41.4678 39.3738 44.1144 39.1106C44.39 39.0832 44.7173 39.0832 45.3718 39.0832M39.0837 45.3713V45.3713C39.0837 44.1742 39.0837 43.5756 39.1857 43.0784C39.5877 41.1187 41.1191 39.5872 43.0789 39.1852C43.5761 39.0832 44.1746 39.0832 45.3718 39.0832V39.0832M25.1253 50.1116C25.1253 51.1948 25.1253 51.7364 25.0433 52.2097C24.7083 54.1415 23.3847 55.756 21.5562 56.4633C21.1081 56.6366 20.577 56.7428 19.5149 56.9553M25.1253 50.1116V50.1116C25.1253 51.6491 25.1253 52.4179 24.9417 53.0766C24.565 54.4282 23.6377 55.5593 22.3862 56.1938C21.7764 56.503 21.0226 56.6537 19.5149 56.9553V56.9553M19.5149 56.9553L18.6883 57.1206M18.6883 57.1206C17.9227 57.2737 17.5395 57.3503 17.2288 57.3771C14.2124 57.6365 11.5389 55.4447 11.2017 52.436C11.167 52.1261 11.167 51.7356 11.167 50.9546M18.6883 57.1206V57.1206C17.2873 57.4008 16.5868 57.5409 16.0152 57.5235C13.7464 57.4546 11.8086 55.866 11.2961 53.6548C11.167 53.0977 11.167 52.3833 11.167 50.9546V50.9546M11.167 50.9546C11.167 50.3001 11.167 49.9729 11.1944 49.6972C11.4576 47.0507 13.5512 44.9572 16.1977 44.6939C16.4733 44.6665 16.8006 44.6665 17.4551 44.6665M11.167 50.9546V50.9546C11.167 49.7575 11.167 49.1589 11.269 48.6617C11.671 46.702 13.2025 45.1705 15.1622 44.7685C15.6594 44.6665 16.258 44.6665 17.4551 44.6665V44.6665" stroke="#45171E" stroke-width="5"/>
</svg>
