<svg width="67" height="67" viewBox="0 0 67 67" fill="none" xmlns="http://www.w3.org/2000/svg">
<path d="M47.4583 11.1666H48.8597C52.2415 11.1666 53.9323 11.1666 55.2285 11.8143C56.4183 12.4088 57.3829 13.3734 57.9773 14.5631C58.625 15.8593 58.625 17.5502 58.625 20.9319V22.3333M47.4583 55.8333H48.8597C52.2415 55.8333 53.9323 55.8333 55.2285 55.1856C56.4183 54.5912 57.3829 53.6265 57.9773 52.4368C58.625 51.1406 58.625 49.4498 58.625 46.068V44.6666M19.5417 11.1666H18.1403C14.7585 11.1666 13.0677 11.1666 11.7715 11.8143C10.5817 12.4088 9.61714 13.3734 9.02267 14.5631C8.375 15.8593 8.375 17.5502 8.375 20.9319V22.3333M19.5417 55.8333H18.1403C14.7585 55.8333 13.0677 55.8333 11.7715 55.1856C10.5817 54.5912 9.61714 53.6265 9.02267 52.4368C8.375 51.1406 8.375 49.4498 8.375 46.068V44.6666" stroke="#45171E" stroke-width="5.58333" stroke-linecap="round"/>
<path d="M21.2888 47.6524C22.4581 45.9646 24.1822 44.505 26.3353 43.4691C28.4886 42.4331 30.9613 41.875 33.5 41.875C36.0387 41.875 38.5114 42.4331 40.6647 43.4691C42.8178 44.505 44.5419 45.9646 45.7112 47.6524" stroke="#45171E" stroke-width="5.58333" stroke-linecap="round"/>
<circle cx="33.5" cy="25.125" r="8.375" stroke="#45171E" stroke-width="5.58333" stroke-linecap="round"/>
</svg>
