<svg width="45" height="45" viewBox="0 0 45 45" fill="none" xmlns="http://www.w3.org/2000/svg">
<path d="M7.5 18.75L6.79289 19.4571L6.08579 18.75L6.79289 18.0429L7.5 18.75ZM38.5 33.75C38.5 34.3023 38.0523 34.75 37.5 34.75C36.9477 34.75 36.5 34.3023 36.5 33.75L38.5 33.75ZM16.1679 28.8321L6.79289 19.4571L8.20711 18.0429L17.5821 27.4179L16.1679 28.8321ZM6.79289 18.0429L16.1679 8.66789L17.5821 10.0821L8.20711 19.4571L6.79289 18.0429ZM7.5 17.75L31.5 17.75L31.5 19.75L7.5 19.75L7.5 17.75ZM38.5 24.75L38.5 33.75L36.5 33.75L36.5 24.75L38.5 24.75ZM31.5 17.75C35.366 17.75 38.5 20.884 38.5 24.75L36.5 24.75C36.5 21.9886 34.2614 19.75 31.5 19.75L31.5 17.75Z" fill="#5E242D"/>
</svg>
