<svg width="40" height="37" viewBox="0 0 40 37" fill="none" xmlns="http://www.w3.org/2000/svg">
<path d="M21.7178 10.8586V34.3858" stroke="#FFFEFE" stroke-width="3.61957" stroke-linecap="round"/>
<path d="M38.0054 10.8586L38.0054 34.3858" stroke="#FFFEFE" stroke-width="3.61957" stroke-linecap="round"/>
<path d="M5.42871 10.8586L5.42871 34.3858" stroke="#FFFEFE" stroke-width="3.61957" stroke-linecap="round"/>
<path d="M38.0058 34.3858C38.0058 34.3858 36.196 30.7662 29.8618 30.7662C23.5276 30.7662 21.7178 34.3858 21.7178 34.3858" stroke="white" stroke-width="3.61957" stroke-linecap="round"/>
<path d="M21.7168 34.3858C21.7168 34.3858 19.907 30.7662 13.5727 30.7662C7.23849 30.7662 5.42871 34.3858 5.42871 34.3858" stroke="#FFFEFE" stroke-width="3.61957" stroke-linecap="round"/>
<path d="M38.0058 10.8588C38.0058 10.8588 36.196 7.23926 29.8618 7.23926C23.5276 7.23926 21.7178 10.8588 21.7178 10.8588" stroke="#FFFEFE" stroke-width="3.61957" stroke-linecap="round"/>
<path d="M21.7168 10.8588C21.7168 10.8588 19.907 7.23926 13.5727 7.23926C7.23849 7.23926 5.42871 10.8588 5.42871 10.8588" stroke="#FFFEFE" stroke-width="3.61957" stroke-linecap="round"/>
</svg>
