<svg width="48" height="48" viewBox="0 0 48 48" fill="none" xmlns="http://www.w3.org/2000/svg">
<path d="M7 27V31C7 35.4183 10.5817 39 15 39V39C18.3137 39 21 36.3137 21 33V28C21 26.3431 22.3431 25 24 25V25C25.6569 25 27 26.3431 27 28V33C27 36.3137 29.6863 39 33 39V39C37.4183 39 41 35.4183 41 31V27" stroke="#FFFCFC" stroke-width="2.08333" stroke-linecap="round"/>
<path d="M21 27H7L12.7118 9.86474C12.8963 9.31105 13.2933 8.85337 13.8153 8.59236V8.59236C15.2785 7.86077 17 8.92475 17 10.5606V11" stroke="#FFFCFC" stroke-width="2.08333" stroke-linecap="round" stroke-linejoin="round"/>
<path d="M27 27H41L35.2882 9.86474C35.1037 9.31105 34.7067 8.85337 34.1847 8.59236V8.59236C32.7215 7.86077 31 8.92475 31 10.5606V11" stroke="#FFFCFC" stroke-width="2.08333" stroke-linecap="round" stroke-linejoin="round"/>
</svg>
