<svg width="62" height="61" viewBox="0 0 62 61" fill="none" xmlns="http://www.w3.org/2000/svg">
<path fill-rule="evenodd" clip-rule="evenodd" d="M26.125 7.25604V21.2403C22.4756 20.8238 19.1148 19.4588 16.5626 17.3852C15.1448 16.2332 14.0399 14.9176 13.2599 13.5129C16.6158 10.1008 21.1088 7.81055 26.125 7.25604ZM30.875 7.25604V21.2403C34.5244 20.8238 37.8852 19.4588 40.4374 17.3852C41.8552 16.2332 42.9601 14.9176 43.7401 13.5129C40.3842 10.1008 35.8912 7.81055 30.875 7.25604ZM46.8273 17.4944C45.8865 18.801 44.7463 20.0044 43.4327 21.0717C39.9842 23.8736 35.5482 25.5814 30.875 26.0151L30.875 30.9848C32.8096 31.1643 34.7123 31.5629 36.5285 32.1742C39.0839 33.0342 41.433 34.3035 43.4327 35.9283C44.7379 36.9887 45.8809 38.19 46.828 39.5057C48.7624 36.291 49.875 32.5257 49.875 28.5006C49.875 24.475 48.7622 20.7093 46.8273 17.4944ZM43.7404 43.4879C42.9546 42.0741 41.8436 40.7573 40.4374 39.6148C38.9084 38.3725 37.0685 37.3677 35.0134 36.6761C33.6887 36.2302 32.2977 35.9224 30.875 35.7599V49.7451C35.8913 49.1906 40.3844 46.9002 43.7404 43.4879ZM26.125 49.7451V35.7599C24.7023 35.9224 23.3113 36.2302 21.9866 36.6761C19.9315 37.3677 18.0916 38.3725 16.5626 39.6148C15.1564 40.7573 14.0454 42.0741 13.2596 43.4879C16.6156 46.9002 21.1087 49.1906 26.125 49.7451ZM10.172 39.5057C11.1191 38.19 12.2621 36.9887 13.5673 35.9283C15.567 34.3035 17.9161 33.0342 20.4715 32.1742C22.2877 31.5629 24.1904 31.1643 26.125 30.9848L26.125 26.0151C21.4518 25.5814 17.0158 23.8736 13.5673 21.0717C12.2537 20.0044 11.1135 18.801 10.1727 17.4944C8.23784 20.7093 7.125 24.475 7.125 28.5006C7.125 32.5257 8.23758 36.291 10.172 39.5057Z" fill="#45171E"/>
</svg>
